Coordinates
version=1
nRows=12
nColumns=19
inDegrees=yes

Units are S.I. units (second, meters, Newtons, ...)
If the header above contains a line with 'inDegrees', this indicates whether rotational values are in degrees (yes) or radians (no).

endheader
time	pelvis_tilt	pelvis_list	pelvis_rotation	pelvis_tx	pelvis_ty	pelvis_tz	hip_flexion_r	hip_adduction_r	hip_rotation_r	knee_angle_r	knee_angle_r_beta	ankle_angle_r	hip_flexion_l	hip_adduction_l	hip_rotation_l	knee_angle_l	knee_angle_l_beta	ankle_angle_l
     13.45333333	     -0.46949539	      9.36550349	      3.74956931	      2.23399859	      1.05467472	      1.00997128	    -14.42670363	    -16.52474922	    -18.36086188	     71.88147647	      1.25456844	    -20.60551808	     17.86810071	     15.14338693	    -11.42391373	      9.71273477	      0.16951920	      1.51438008
     13.46000000	     -0.94328896	      9.85428178	      4.17226785	      2.23182299	      1.04811232	      1.00954268	    -12.64269308	    -17.44104374	    -17.73381100	     75.42274752	      1.31637528	    -19.99496244	     19.13786067	     15.43443468	    -12.43748725	     13.03571219	      0.22751610	      1.94899321
     13.46666667	     -1.15163560	     10.45998094	      4.58292961	      2.22956741	      1.04162865	      1.00928532	    -11.13707523	    -18.46084527	    -17.12086970	     78.85909690	      1.37635089	    -19.28149784	     20.05552962	     15.81234976	    -13.27270148	     16.41712668	      0.28653291	      2.53933838
     13.47333333	     -1.44328037	     10.99831172	      4.95580740	      2.22708289	      1.03501170	      1.00924651	     -9.39510275	    -19.38323442	    -16.29628521	     82.24522609	      1.43544999	    -18.52855835	     21.05886800	     16.08084817	    -13.98448023	     19.91859394	      0.34764505	      3.37826141
     13.48000000	     -1.81802193	     11.46759339	      5.29939047	      2.22439630	      1.02834933	      1.00934423	     -7.41970044	    -20.19703161	    -15.26865523	     85.55883031	      1.49328329	    -17.72110918	     22.10264787	     16.27717153	    -14.51756977	     23.42330155	      0.40881373	      4.52722672
     13.48666667	     -2.21142079	     11.86493594	      5.58318183	      2.22147979	      1.02183849	      1.00964154	     -5.25805027	    -20.88180391	    -14.03055181	     88.76851455	      1.54930285	    -16.90390834	     23.08534751	     16.40676150	    -14.87590466	     26.83365376	      0.46833561	      5.95948570
     13.49333333	     -2.70894254	     12.15854173	      5.89291984	      2.21838430	      1.01552300	      1.00998022	     -2.85910382	    -21.40557237	    -12.67273750	     91.83462928	      1.60281665	    -16.08448795	     24.05636983	     16.49265461	    -14.97882711	     30.06891342	      0.52480154	      7.64320325
     13.50000000	     -3.18745420	     12.34854265	      6.13053262	      2.21507861	      1.00964208	      1.01045384	     -0.31436879	    -21.74268317	    -11.13527176	     94.73131766	      1.65337340	    -15.27956159	     24.86670060	     16.50587375	    -14.91987992	     33.05753580	      0.57696284	      9.54258928
     13.50666667	     -3.63983150	     12.42869303	      6.29923523	      2.21162879	      1.00429474	      1.01100434	      2.35125583	    -21.88100148	     -9.45752765	     97.41809687	      1.70026654	    -14.53721414	     25.47677505	     16.44332522	    -14.72673629	     35.73217929	      0.62364418	     11.63155953
     13.51333333	     -4.18617178	     12.39318209	      6.52295965	      2.20805422	      0.99942529	      1.01146709	      5.18878139	    -21.84226596	     -7.79752172	     99.87839012	      1.74320676	    -13.75213619	     25.98928195	     16.36170213	    -14.28860427	     38.06846078	      0.66441998	     13.71886177
     13.52000000	     -4.49206170	     12.26720320	      6.54223855	      2.20446287	      0.99549907	      1.01213567	      7.90688685	    -21.58105828	     -5.99523794	    102.04816530	      1.78107648	    -13.04193898	     26.03542940	     16.13438338	    -13.90537070	     40.00196109	      0.69816593	     15.83084134
     13.52666667	     -4.86504816	     12.00793670	      6.59112421	      2.20089869	      0.99216712	      1.01266423	     10.71705755	    -21.13007997	     -4.28720318	    103.92477342	      1.81382947	    -12.29304190	     25.93349444	     15.83810939	    -13.37657429	     41.55301047	      0.72523685	     17.84174782
